#include <avr/pgmspace.h>         // needed for PROGMEM
#include "pitches.h"

#ifdef FANFARE
const uint16_t notecount = 69;
const PROGMEM uint8_t note_durs[] = {
	EN, EN, EN, QN, QN, QN,
	QN, EN, DHN,
	QN, QN, QN, EN, QN,
	EN, QN, EN, QN, EN,
	QN, QN, QN, EN, 72,
	QN, QN, QN, EN, QN,
	EN, QN, EN, QN, EN,
	QN, QN, QN, EN, 72,
	QN, QN, QN, EN, QN,
	EN, QN, EN, QN, EN,
	QN, QN, QN, EN, 72,
	QN, QN, QN, EN, QN,
	EN, QN, EN, QN, EN,
	QN, QN, QN, EN, 136,
};

const PROGMEM uint16_t note_pitch[] = {
  NOTE_F5, NOTE_F5, NOTE_F5, NOTE_F5, NOTE_CS5, NOTE_DS5,
	NOTE_F5, NOTE_DS5, NOTE_F5,
	NOTE_C5, NOTE_B4, NOTE_C5, NOTE_B4, NOTE_DS5,
	NOTE_DS5, NOTE_D5, NOTE_E5, NOTE_D5, NOTE_D5,
	NOTE_C5, NOTE_B4, NOTE_A4, NOTE_B4, NOTE_G4,
	NOTE_C5, NOTE_B4, NOTE_C5, NOTE_B4, NOTE_DS5,
	NOTE_DS5, NOTE_D5, NOTE_E5, NOTE_D5, NOTE_D5,
	NOTE_C5, NOTE_B4, NOTE_C5, NOTE_DS5, NOTE_F5,
	NOTE_C5, NOTE_B4, NOTE_C5, NOTE_B4, NOTE_DS5,
	NOTE_DS5, NOTE_D5, NOTE_E5, NOTE_D5, NOTE_D5,
	NOTE_C5, NOTE_B4, NOTE_A4, NOTE_B4, NOTE_G4,
	NOTE_C5, NOTE_B4, NOTE_C5, NOTE_B4, NOTE_DS5,
	NOTE_DS5, NOTE_D5, NOTE_E5, NOTE_D5, NOTE_D5,
  NOTE_C5, NOTE_B4, NOTE_C5, NOTE_DS5, NOTE_F5,
};
#endif //FANFARE

#ifdef CRYSTAL_GEMS
const uint16_t notecount = 58;
//non chorded version
const PROGMEM uint8_t note_durs[] = {
	HN, HN,
	QN, EN, QN, DQN,
	HN, QN, QN,
	QN, QN, QN, EN, EN+HN,
	QN, EN, EN,
	EN, QN, QN, QN, EN+EN,
	EN, QN, HN,
	QN, QN, QN, EN, EN+HN,
	QN, QN,
	DQN, EN, EN, DQN,
	HN, HN,
	HN, QN, EN, EN+QN,
	HN, QN,
	QN, DEN, SN, QN, QN,
	QN, QN, HN,
	WN,
	SN, SN, SN, SN,
	SN, SN, SN, SN,
	SN, SN, SN, SN,
	SN, SN, SN, WN+SN,
};
const PROGMEM uint16_t note_pitch[] = {
	NOTE_D4, REST,
	NOTE_G4, NOTE_G4, NOTE_D4, NOTE_D4,
	NOTE_DS4, REST, NOTE_B3,
	NOTE_DS4, NOTE_D4, NOTE_D4, NOTE_D4, NOTE_E4,
	REST, REST, NOTE_E4,
	NOTE_B4, NOTE_A4, NOTE_G4, NOTE_A4, NOTE_A4,
	REST, REST, NOTE_DS4,
	NOTE_B4, NOTE_A4, NOTE_G4, NOTE_F4, NOTE_G4,
	REST, NOTE_D4,
	NOTE_B4, NOTE_A4, NOTE_G4, NOTE_A4,
	NOTE_F4, NOTE_DS4,
	NOTE_B3, REST, NOTE_A3, NOTE_A3,
	NOTE_G3, REST,
	NOTE_B4, NOTE_A4, REST, NOTE_G4, NOTE_A4,
	NOTE_G4, REST, NOTE_DS4,
	NOTE_B4,
	NOTE_G3, NOTE_B3, NOTE_D4, NOTE_F4,
	NOTE_G4, NOTE_B4, NOTE_D5, NOTE_B3,
	NOTE_D4, NOTE_F4, NOTE_G4, NOTE_B4,
	NOTE_D5, NOTE_F5, NOTE_G5, NOTE_B5,
};

#endif //CRYSTAL_GEMS

#ifdef GIANT_WOMAN
const uint16_t notecount = 211;
const PROGMEM uint8_t note_durs[] = {
	EN, EN, EN, EN, QN, EN, EN,
	EN, EN, EN, EN, QN, EN, EN,
	EN, EN, EN, QN, QN, EN,
	EN, EN, EN, QN, QN, EN,
	EN, EN, EN, EN, QN, EN, EN,
	EN, EN, EN, EN, QN, EN, EN,

	EN, EN, EN, QN, QN, EN,
	WN,
	EN, EN, EN, EN, QN, EN, EN,
	EN, EN, EN, EN, QN, EN, EN,
	EN, EN, EN, QN, QN, EN,
	EN, EN, EN, QN, QN, EN,

	EN, EN, EN, EN, QN, EN, EN,
	EN, EN, EN, EN, QN, EN, EN,
	EN, EN, EN, QN, QN, EN,
	WN,
	EN, EN, EN, EN, EN, EN, EN, EN,

	EN, EN, EN, EN, DQN, EN,
	QN, QN, QN, EN, EN,
	DQN, EN, EN, QN, EN,
	EN, EN, EN, EN, EN, EN, EN, EN,
	EN, EN, EN, EN, DQN, EN,

	QN, QN, DQN, EN,
	QN, QN, EN, QN, EN,
	EN, EN, EN, EN, QN, EN, EN,
	EN, EN, EN, QN, EN, EN, EN,
	QN, QN, EN, EN, QN,
	QN, EN, QN, QN, EN,

	EN, EN, EN, EN, QN, EN, EN,
	EN, EN, EN, EN, QN, EN, EN,
	EN, EN, EN, QN, QN, EN,
	EN, EN, EN, QN, QN, EN,
	EN, EN, EN, EN, QN, EN, EN,

	EN, EN, EN, EN, QN, EN, EN,
	EN, EN, EN, QN, DQN,
  WN,
};
const PROGMEM uint16_t note_pitch[] = {
	NOTE_E5, NOTE_D5, NOTE_C5, NOTE_D5, NOTE_A4, NOTE_A4, NOTE_A4,
	NOTE_E5, NOTE_D5, NOTE_C5, NOTE_D5, NOTE_G4, REST, NOTE_G4,
	NOTE_E5, NOTE_D5, REST, NOTE_D5, NOTE_E5, NOTE_E5,
	NOTE_C6, NOTE_B5, REST, NOTE_B5, NOTE_A5, REST,
	NOTE_E5, NOTE_D5, NOTE_C5, NOTE_D5, NOTE_A4, NOTE_A4, NOTE_A4,
	NOTE_E5, NOTE_D5, NOTE_C5, NOTE_D5, NOTE_G4, REST, NOTE_G4,

	NOTE_G4, NOTE_F4, REST, NOTE_F4, NOTE_E4, REST,
	REST,
	NOTE_E5, NOTE_D5, NOTE_C5, NOTE_D5, NOTE_A4, NOTE_A4, NOTE_A4,
	NOTE_E5, NOTE_D5, NOTE_C5, NOTE_D5, NOTE_G4, REST, NOTE_G4,
	NOTE_E5, NOTE_D5, REST, NOTE_D5, NOTE_E5, NOTE_E5,
	NOTE_C6, NOTE_B5, REST, NOTE_B5, NOTE_A5, REST,

	NOTE_E5, NOTE_D5, NOTE_C5, NOTE_D5, NOTE_A4, NOTE_A4, NOTE_A4,
	NOTE_E5, NOTE_D5, NOTE_C5, NOTE_D5, NOTE_G4, REST, NOTE_G4,
	NOTE_G4, NOTE_F4, REST, NOTE_F4, NOTE_E4, REST,
	REST,
	NOTE_E5, NOTE_E5, NOTE_E5, NOTE_E5, NOTE_DS5, REST, NOTE_B4, NOTE_B4,

	NOTE_A5, NOTE_A5, REST, NOTE_G5, REST, NOTE_G5,
	NOTE_G5, NOTE_G5, NOTE_G5, NOTE_G5, NOTE_A5,
	NOTE_G5, NOTE_A5, NOTE_G5, NOTE_E5, NOTE_E5,
	NOTE_E5, NOTE_E5, NOTE_E5, NOTE_E5, NOTE_DS5, REST, NOTE_B4, NOTE_B4,
	NOTE_A5, NOTE_A5, REST, NOTE_G5, REST, NOTE_G5,

	NOTE_G5, NOTE_A5, NOTE_G5, NOTE_A5,
	NOTE_G5, NOTE_A5, NOTE_G5, NOTE_E5, REST,
	NOTE_E5, NOTE_D5, NOTE_C5, NOTE_D5, NOTE_A4, REST, NOTE_A4,
	NOTE_E5, NOTE_D5, NOTE_C5, NOTE_D5, NOTE_G4, REST, NOTE_G4,
	NOTE_E5, NOTE_E5, NOTE_E5, NOTE_E5, NOTE_E5,
	NOTE_E5, NOTE_F5, NOTE_E5, NOTE_D5, REST,

	NOTE_E5, NOTE_D5, NOTE_C5, NOTE_D5, NOTE_A4, NOTE_A4, NOTE_A4,
	NOTE_E5, NOTE_D5, NOTE_C5, NOTE_D5, NOTE_A4, REST, NOTE_A4,
	NOTE_E5, NOTE_D5, REST, NOTE_D5, NOTE_E5, NOTE_E5,
	NOTE_C6, NOTE_B5, REST, NOTE_B5, NOTE_A5, REST,
	NOTE_E5, NOTE_D5, NOTE_C5, NOTE_D5, NOTE_A4, NOTE_A4, NOTE_A4,

	NOTE_E5, NOTE_D5, NOTE_C5, NOTE_D5, NOTE_G4, REST, NOTE_G4,
	NOTE_E5, NOTE_D5, REST, NOTE_D5, NOTE_C5,
  NOTE_C5,
};

#endif //GIANT_WOMAN

#ifdef ANOTHER_WINTER
const uint16_t notecount = 69;
const PROGMEM uint8_t note_durs[] = {
	EN, EN, EN, QN, QN, QN,
	QN, EN, DHN,
	QN, QN, QN, EN, QN,
	EN, QN, EN, QN, EN,
	QN, QN, QN, EN, 72,
	QN, QN, QN, EN, QN,
	EN, QN, EN, QN, EN,
	QN, QN, QN, EN, 72,
	QN, QN, QN, EN, QN,
	EN, QN, EN, QN, EN,
	QN, QN, QN, EN, 72,
	QN, QN, QN, EN, QN,
	EN, QN, EN, QN, EN,
	QN, QN, QN, EN, 136,
};

const PROGMEM uint16_t note_pitch[] = {
  NOTE_F5, NOTE_F5, NOTE_F5, NOTE_F5, NOTE_CS5, NOTE_DS5,
	NOTE_F5, NOTE_DS5, NOTE_F5,
	NOTE_C5, NOTE_B4, NOTE_C5, NOTE_B4, NOTE_DS5,
	NOTE_DS5, NOTE_D5, NOTE_E5, NOTE_D5, NOTE_D5,
	NOTE_C5, NOTE_B4, NOTE_A4, NOTE_B4, NOTE_G4,
	NOTE_C5, NOTE_B4, NOTE_C5, NOTE_B4, NOTE_DS5,
	NOTE_DS5, NOTE_D5, NOTE_E5, NOTE_D5, NOTE_D5,
	NOTE_C5, NOTE_B4, NOTE_C5, NOTE_DS5, NOTE_F5,
	NOTE_C5, NOTE_B4, NOTE_C5, NOTE_B4, NOTE_DS5,
	NOTE_DS5, NOTE_D5, NOTE_E5, NOTE_D5, NOTE_D5,
	NOTE_C5, NOTE_B4, NOTE_A4, NOTE_B4, NOTE_G4,
	NOTE_C5, NOTE_B4, NOTE_C5, NOTE_B4, NOTE_DS5,
	NOTE_DS5, NOTE_D5, NOTE_E5, NOTE_D5, NOTE_D5,
  NOTE_C5, NOTE_B4, NOTE_C5, NOTE_DS5, NOTE_F5,
};
#endif //ANOTHER_WINTER
